<?xml version="1.0" encoding="UTF-8"?>
<svg version="1.1" xmlns="http://www.w3.org/2000/svg" width="193" height="106">
<path d="M0 0 C63.69 0 127.38 0 193 0 C193 34.98 193 69.96 193 106 C129.31 106 65.62 106 0 106 C0 71.02 0 36.04 0 0 Z " fill="#9BC1DB" transform="translate(0,0)"/>
<path d="M0 0 C1.3320195 -0.00065712 1.3320195 -0.00065712 2.69094849 -0.00132751 C5.62923082 0.00076427 8.56694417 0.02411377 11.50512695 0.04760742 C13.54107857 0.05320199 15.57703423 0.05747274 17.61299133 0.06047058 C22.97412243 0.07193032 28.33501008 0.10140731 33.69604492 0.13458252 C39.16557522 0.16525903 44.63514482 0.17897075 50.10473633 0.1940918 C60.83856731 0.22627584 71.57221752 0.2774859 82.3059082 0.34057617 C82.37542228 11.46718974 82.42872671 22.59375163 82.46134472 33.72053814 C82.47699983 38.88717507 82.49823542 44.05366342 82.53222656 49.22021484 C82.56482531 54.20633721 82.58276238 59.19231666 82.59053993 64.17853737 C82.5960825 66.08073997 82.60690575 67.98293477 82.62309837 69.88507652 C82.64487946 72.54969555 82.64787484 75.21372422 82.64648438 77.87841797 C82.6572702 78.6646051 82.66805603 79.45079224 82.6791687 80.26080322 C82.6535853 84.7924395 82.2237366 87.80262586 79.3059082 91.34057617 C75.79869087 94.01190498 71.72296751 93.6363153 67.49560547 93.63110352 C66.71301361 93.63782074 65.93042175 93.64453796 65.12411499 93.65145874 C62.5401167 93.67043861 59.95637809 93.67436273 57.37231445 93.67651367 C55.57396844 93.68294098 53.77562348 93.68966929 51.97727966 93.69668579 C48.20878678 93.70865806 44.44038556 93.7123666 40.671875 93.71118164 C35.84520163 93.71097831 31.01911612 93.73829513 26.19258213 93.77272606 C22.47878829 93.79497165 18.76513653 93.79901992 15.05128288 93.79796219 C13.27189035 93.80032111 11.49249407 93.80916105 9.71316719 93.82462692 C7.22356168 93.84424253 4.7352319 93.83846729 2.24560547 93.82641602 C1.51245621 93.83765503 0.77930695 93.84889404 0.02394104 93.86047363 C-4.82261696 93.80091411 -7.29415806 92.78718477 -10.6940918 89.34057617 C-12.25729242 86.21417492 -11.85026419 82.88280404 -11.85522461 79.45019531 C-11.86018951 78.63542221 -11.86515442 77.82064911 -11.87026978 76.98118591 C-11.8849041 74.27935958 -11.89169496 71.57759192 -11.8972168 68.87573242 C-11.90296652 67.00247699 -11.90872428 65.12922157 -11.91448975 63.25596619 C-11.92500289 59.32591476 -11.93084373 55.39588382 -11.93432617 51.46582031 C-11.93981626 46.42378422 -11.96385391 41.38201746 -11.99229813 36.34006596 C-12.01089669 32.47024233 -12.01612858 28.60048399 -12.01766205 24.73061943 C-12.02069463 22.87142906 -12.02874345 21.01224 -12.04184723 19.15309334 C-12.05885232 16.55530245 -12.0570414 13.95817512 -12.05053711 11.36035156 C-12.05975189 10.58881744 -12.06896667 9.81728333 -12.07846069 9.02236938 C-12.03733897 3.7944448 -12.03733897 3.7944448 -10.40959072 1.64210701 C-7.39359799 -0.64609468 -3.63766309 -0.04670128 0 0 Z " fill="#374A8B" transform="translate(110.694091796875,-0.340576171875)"/>
<path d="M0 0 C4.94790177 -0.0493651 9.89566083 -0.08570269 14.84375 -0.10986328 C16.52769466 -0.11993317 18.21162179 -0.13358988 19.89550781 -0.15087891 C22.31319501 -0.17508426 24.73065143 -0.18647296 27.1484375 -0.1953125 C27.9036972 -0.20563507 28.65895691 -0.21595764 29.43710327 -0.22659302 C31.2929398 -0.22699318 33.1481928 -0.12222716 35 0 C37.9637909 2.9637909 37.30309473 6.17571705 37.30639648 10.14990234 C37.31472 10.99232986 37.32304352 11.83475739 37.33161926 12.70271301 C37.35578261 15.49716772 37.36449915 18.29138929 37.37109375 21.0859375 C37.38005543 23.02405876 37.38917718 24.96217929 37.39845276 26.90029907 C37.41496265 30.96740401 37.42264648 35.03442643 37.42553711 39.1015625 C37.43092229 44.31634747 37.46859933 49.53035829 37.51428127 54.74492455 C37.54400651 58.74948974 37.55125968 62.75386753 37.55226326 66.75853348 C37.55647477 68.68111338 37.56894623 70.60369338 37.58978081 72.52616501 C37.61660104 75.21512685 37.61189824 77.90228185 37.59936523 80.59130859 C37.61419952 81.38729965 37.62903381 82.18329071 37.64431763 83.00340271 C37.59291961 86.87071243 37.35332095 88.62037379 34.6758728 91.49716187 C31.17627924 93.4626225 28.73153113 93.45648611 24.73046875 93.390625 C24.04946609 93.38496521 23.36846344 93.37930542 22.66682434 93.37347412 C20.50631355 93.35120481 18.34750354 93.30103318 16.1875 93.25 C14.71682095 93.22992247 13.24611571 93.21167389 11.77539062 93.1953125 C8.1830475 93.15137326 4.59168994 93.08241456 1 93 C0.67 91.35 0.34 89.7 0 88 C1.65 88 3.3 88 5 88 C5 87.34 5 86.68 5 86 C4.21882813 86.24556641 4.21882813 86.24556641 3.421875 86.49609375 C0.3243125 87.14058659 -2.58841094 87.09411589 -5.75 87.0625 C-6.92046875 87.05347656 -8.0909375 87.04445313 -9.296875 87.03515625 C-10.63492188 87.01775391 -10.63492188 87.01775391 -12 87 C-12.66 85.68 -13.32 84.36 -14 83 C-15.5833253 84.2488427 -15.5833253 84.2488427 -17 86 C-17 87.32 -17 88.64 -17 90 C-19.38564077 89.42415568 -21.66682784 88.77772405 -24 88 C-23.896875 86.783125 -23.79375 85.56625 -23.6875 84.3125 C-23.65439503 80.57163804 -23.86458804 80.15572376 -26.5 77.125 C-27.7375 76.073125 -27.7375 76.073125 -29 75 C-29 74.34 -29 73.68 -29 73 C-31.96586334 75.88448295 -34.60532372 79.00890096 -37.28125 82.16015625 C-40.85462206 85.98528861 -43.95836612 86.42924899 -49 87 C-47.22242183 82.78170569 -44.49741603 80.75684031 -40.97265625 77.9765625 C-38.41835514 75.62493342 -38.41835514 75.62493342 -36 70 C-30.72 70 -25.44 70 -20 70 C-20.33 68.68 -20.66 67.36 -21 66 C-15.72 66.33 -10.44 66.66 -5 67 C-3.515 64.03 -3.515 64.03 -2 61 C-1.34 61 -0.68 61 0 61 C0.268125 60.401875 0.53625 59.80375 0.8125 59.1875 C1.98493467 57.02775192 3.19369282 55.64209744 5 54 C4.01 54 3.02 54 2 54 C1.38125 52.4221875 1.38125 52.4221875 0.75 50.8125 C-0.69220829 47.40364404 -2.63565426 44.85352072 -5 42 C-5 41.34 -5 40.68 -5 40 C-3.02 40 -1.04 40 1 40 C1.33 39.01 1.66 38.02 2 37 C0.9275 37.020625 -0.145 37.04125 -1.25 37.0625 C-5 37 -5 37 -7.25 36.375 C-8.11625 36.189375 -8.11625 36.189375 -9 36 C-9.99 36.66 -10.98 37.32 -12 38 C-12.99 37.67 -13.98 37.34 -15 37 C-14.01 36.67 -13.02 36.34 -12 36 C-12 35.01 -12 34.02 -12 33 C-14.97 32.505 -14.97 32.505 -18 32 C-18 31.67 -18 31.34 -18 31 C-17.10796875 30.95101563 -16.2159375 30.90203125 -15.296875 30.8515625 C-14.12640625 30.77679687 -12.9559375 30.70203125 -11.75 30.625 C-10.00976562 30.52058594 -10.00976562 30.52058594 -8.234375 30.4140625 C-5.27037904 30.03461374 -3.48545173 29.59444073 -1 28 C1.34742282 24.94835034 1.42318622 21.62327314 1.3125 17.89453125 C1.10733063 15.79706056 1.10733063 15.79706056 -0.625 13.6875 C-3.29843013 11.78795754 -6.01693552 10.3559384 -9 9 C-9 7.68 -9 6.36 -9 5 C-2.25 4.875 -2.25 4.875 0 6 C0 4.02 0 2.04 0 0 Z " fill="#77AACF" transform="translate(58,0)"/>
<path d="M0 0 C0.99 0.33 1.98 0.66 3 1 C2.67 1.33 2.34 1.66 2 2 C1.89421009 4.69762462 1.85322061 7.36978121 1.85473633 10.06811523 C1.85137772 10.91360931 1.8480191 11.75910339 1.84455872 12.63021851 C1.83501918 15.43969165 1.83310411 18.24910539 1.83203125 21.05859375 C1.82882078 23.00293503 1.82545687 24.94727606 1.82194519 26.89161682 C1.81594641 30.97307902 1.81410606 35.05452003 1.81469727 39.13598633 C1.81479894 44.37650508 1.80114498 49.61688849 1.78392506 54.85737514 C1.77282899 58.87470631 1.77077732 62.89200451 1.77130699 66.90934944 C1.77012332 68.84192433 1.76568003 70.77449997 1.75797462 72.70705986 C1.74822275 75.40563421 1.75103362 78.10391153 1.75708008 80.80249023 C1.75146057 81.60724289 1.74584106 82.41199554 1.74005127 83.24113464 C1.59630563 87.58661653 1.59630563 87.58661653 4 91 C6.30413978 91.36855714 6.30413978 91.36855714 9.01391602 91.40527344 C10.06602768 91.44275696 11.11813934 91.48024048 12.20213318 91.51885986 C13.35359329 91.54872986 14.50505341 91.57859985 15.69140625 91.609375 C16.89116592 91.64649597 18.0909256 91.68361694 19.32704163 91.72186279 C32.22405519 92.09042759 45.12282567 92.22072187 58.0246582 92.24023438 C61.34751748 92.24852753 64.66975397 92.27029527 67.99246883 92.29820633 C71.21239735 92.32119941 74.43234461 92.3232603 77.65234375 92.328125 C79.4301548 92.3466452 79.4301548 92.3466452 81.24388123 92.36553955 C82.33765579 92.36253845 83.43143036 92.35953735 84.55834961 92.35644531 C85.51615829 92.36009094 86.47396698 92.36373657 87.46080017 92.36749268 C90.64703782 91.90635567 91.90352627 91.47735295 94 89 C94.3864454 86.10795217 94.51630356 83.59686782 94.4699707 80.70483398 C94.4721611 79.85904785 94.4743515 79.01326172 94.47660828 78.1418457 C94.47892205 75.34286551 94.45265065 72.54493391 94.42578125 69.74609375 C94.42085906 67.8046146 94.41755906 65.86313072 94.41581726 63.92164612 C94.40817223 59.85198831 94.38759509 55.78268157 94.35668945 51.71313477 C94.31708801 46.48839151 94.29907723 41.26387674 94.28938007 36.03900051 C94.27942006 31.06633376 94.25951887 26.09372323 94.23828125 21.12109375 C94.2348855 20.16762999 94.23148975 19.21416622 94.2279911 18.23180962 C94.21644987 15.54306168 94.19793465 12.8544607 94.17700195 10.16577148 C94.17431305 9.36416092 94.17162415 8.56255035 94.16885376 7.73664856 C94.21676031 3.73806118 94.21676031 3.73806118 93 0 C95.97 0 98.94 0 102 0 C101.34 0.99 100.68 1.98 100 3 C99.79018422 5.6909251 99.69593719 8.27984992 99.69360352 10.97216797 C99.68111824 12.18972778 99.68111824 12.18972778 99.66838074 13.43188477 C99.64425971 16.11870095 99.63550613 18.80527448 99.62890625 21.4921875 C99.61994156 23.35922316 99.61081974 25.22625808 99.60154724 27.09329224 C99.58504901 31.00898994 99.57735561 34.92460205 99.57446289 38.84033203 C99.56907803 43.85658531 99.53139747 48.87203369 99.48571873 53.88805962 C99.45596829 57.74511651 99.44873978 61.60197911 99.44773674 65.45914078 C99.44353047 67.30832735 99.43107983 69.15751429 99.41021919 71.00658798 C99.38334573 73.59467402 99.38811732 76.1808884 99.40063477 78.76904297 C99.38580048 79.53181549 99.37096619 80.29458801 99.35568237 81.08047485 C99.40739349 84.83727781 99.90182197 86.85681496 102.04122925 89.97697449 C105.73291888 92.50112486 108.61806628 92.68680763 112.93969727 92.59936523 C114.11621353 92.60527931 114.11621353 92.60527931 115.3164978 92.61131287 C117.90045742 92.61800759 120.48263671 92.58889676 123.06640625 92.55859375 C124.86571409 92.55434193 126.66502741 92.55201488 128.46434021 92.55152893 C132.23128194 92.54536835 135.99762791 92.52269084 139.7644043 92.48706055 C144.59214137 92.44175597 149.41933961 92.42703255 154.24726963 92.42332363 C157.96104747 92.41889451 161.67471231 92.40359023 165.38844109 92.3844471 C167.16863005 92.3755704 168.94883105 92.36883773 170.72903633 92.36428642 C173.21612931 92.35524034 175.70273615 92.33284739 178.18969727 92.30639648 C178.92487076 92.30573181 179.66004425 92.30506714 180.41749573 92.30438232 C184.08447136 92.25057604 186.97889398 92.18819885 190 90 C190.99 88.68 191.98 87.36 193 86 C193 92.6 193 99.2 193 106 C129.31 106 65.62 106 0 106 C0 71.02 0 36.04 0 0 Z " fill="#E9EAF2" transform="translate(0,0)"/>
<path d="M0 0 C5.94 0.99 5.94 0.99 12 2 C11.67 3.32 11.34 4.64 11 6 C8.03 5.505 8.03 5.505 5 5 C5.49371094 5.68707031 5.98742187 6.37414063 6.49609375 7.08203125 C7.13675781 7.98308594 7.77742188 8.88414063 8.4375 9.8125 C9.07558594 10.70582031 9.71367188 11.59914063 10.37109375 12.51953125 C12 15 12 15 13 18 C13.99 18.33 14.98 18.66 16 19 C15.04882866 20.1725131 14.08882991 21.33787015 13.125 22.5 C12.59132813 23.1496875 12.05765625 23.799375 11.5078125 24.46875 C11.01023437 24.9740625 10.51265625 25.479375 10 26 C9.34 26 8.68 26 8 26 C8 26.66 8 27.32 8 28 C2.86813609 30.23696632 -1.62205038 30.3337315 -7 29 C-7.66 28.34 -8.32 27.68 -9 27 C-8.34 25.35 -7.68 23.7 -7 22 C-7.66 22 -8.32 22 -9 22 C-8.67 20.68 -8.34 19.36 -8 18 C-8.99 18 -9.98 18 -11 18 C-11.66 15.69 -12.32 13.38 -13 11 C-13.66 11 -14.32 11 -15 11 C-16.625 9 -16.625 9 -18 7 C-15.00519083 6.1276588 -12.36424089 5.89170234 -9.25 5.9375 C-8.45078125 5.94652344 -7.6515625 5.95554687 -6.828125 5.96484375 C-6.22484375 5.97644531 -5.6215625 5.98804688 -5 6 C-4.67 5.01 -4.34 4.02 -4 3 C-1.9375 2.3125 -1.9375 2.3125 0 2 C0 1.34 0 0.68 0 0 Z " fill="#F4EFE7" transform="translate(48,35)"/>
<path d="M0 0 C1.87939453 -0.34057617 1.87939453 -0.34057617 4.1328125 -0.29296875 C4.93847656 -0.28330078 5.74414062 -0.27363281 6.57421875 -0.26367188 C7.41597656 -0.23853516 8.25773437 -0.21339844 9.125 -0.1875 C9.97449219 -0.17396484 10.82398438 -0.16042969 11.69921875 -0.14648438 C13.79974837 -0.11108219 15.89995293 -0.05727401 18 0 C18 1.98 18 3.96 18 6 C15.03 5.67 12.06 5.34 9 5 C9.51035427 8.9675663 9.51035427 8.9675663 11.77734375 10.16015625 C12.49019531 10.45792969 13.20304687 10.75570313 13.9375 11.0625 C17.23258319 12.45588364 17.90387694 12.85581541 20 16 C20.42733494 21.29895331 20.51322472 24.73394141 17 29 C13.6344038 31.18535319 10.83405771 31.24100078 6.875 31.1875 C5.82054687 31.18105469 4.76609375 31.17460937 3.6796875 31.16796875 C1 31 1 31 -1 30 C-1 26.7 -1 23.4 -1 20 C0.32 20.66 1.64 21.32 3 22 C5.33203812 22.0777346 7.66839059 22.08967728 10 22 C8.83071261 18.49213783 8.22191155 18.29245975 5.125 16.5625 C-0.51458027 13.15651694 -0.51458027 13.15651694 -2 10 C-2.38503486 5.61060262 -2.47342266 3.71013399 0 0 Z " fill="#FBFCFC" transform="translate(18,0)"/>
<path d="M0 0 C5.94 0 11.88 0 18 0 C18 1.98 18 3.96 18 6 C15.03 5.67 12.06 5.34 9 5 C9 6.32 9 7.64 9 9 C9.886875 9.226875 10.77375 9.45375 11.6875 9.6875 C15.61826395 11.24497251 17.48361527 12.59547949 20 16 C20.86351964 20.02432738 20.38067801 23.12444057 18.75 26.875 C16.83947813 29.19491941 15.77680352 29.92649348 13 31 C10.0546875 31.23046875 10.0546875 31.23046875 6.875 31.1875 C5.82054687 31.18105469 4.76609375 31.17460937 3.6796875 31.16796875 C1 31 1 31 -1 30 C-1 26.7 -1 23.4 -1 20 C-0.278125 20.33 0.44375 20.66 1.1875 21 C4.01697427 22.00603529 6.02895466 22.16977402 9 22 C9 21.01 9 20.02 9 19 C7.29849615 17.59964954 7.29849615 17.59964954 5.125 16.4375 C2.72834251 15.05877768 0.96772446 13.96772446 -1 12 C-1.23046875 9.6875 -1.23046875 9.6875 -1.1875 7 C-1.18105469 6.113125 -1.17460938 5.22625 -1.16796875 4.3125 C-1 2 -1 2 0 0 Z " fill="#FBFCFC" transform="translate(40,0)"/>
<path d="M0 0 C0.66 0.33 1.32 0.66 2 1 C5.78706732 1 9.26513121 0.5745952 13 0 C13 0.99 13 1.98 13 3 C11.989375 3.061875 10.97875 3.12375 9.9375 3.1875 C6.00595523 3.727591 3.69313456 5.40642586 0.6171875 7.8125 C-1 9 -1 9 -3.5 9.9375 C-6.07370812 11.03132595 -7.44862552 12.19681028 -9.5 14.0625 C-12.25447635 16.53972052 -14.1860177 17.76884956 -18 18 C-17.9175 19.03125 -17.835 20.0625 -17.75 21.125 C-18.04101389 25.63571522 -19.42789367 27.38297547 -22 31 C-22 32.32 -22 33.64 -22 35 C-24.38564077 34.42415568 -26.66682784 33.77772405 -29 33 C-28.896875 31.783125 -28.79375 30.56625 -28.6875 29.3125 C-28.65439503 25.57163804 -28.86458804 25.15572376 -31.5 22.125 C-32.325 21.42375 -33.15 20.7225 -34 20 C-34 19.34 -34 18.68 -34 18 C-36.96586334 20.88448295 -39.60532372 24.00890096 -42.28125 27.16015625 C-45.85462206 30.98528861 -48.95836612 31.42924899 -54 32 C-52.22242183 27.78170569 -49.49741603 25.75684031 -45.97265625 22.9765625 C-43.41835514 20.62493342 -43.41835514 20.62493342 -41 15 C-35.72 15 -30.44 15 -25 15 C-25.33 13.68 -25.66 12.36 -26 11 C-20.72 11.33 -15.44 11.66 -10 12 C-9.01 10.02 -8.02 8.04 -7 6 C-6.34 6 -5.68 6 -5 6 C-4.731875 5.38125 -4.46375 4.7625 -4.1875 4.125 C-3 2 -3 2 0 0 Z " fill="#7F8BA2" transform="translate(63,55)"/>
<path d="M0 0 C6.93 0 13.86 0 21 0 C21 1.32 21 2.64 21 4 C19.02 4 17.04 4 15 4 C15 12.91 15 21.82 15 31 C12.03 31 9.06 31 6 31 C6 22.09 6 13.18 6 4 C4.02 4 2.04 4 0 4 C0 2.68 0 1.36 0 0 Z " fill="#FBFCFC" transform="translate(60,0)"/>
<path d="M0 0 C1.98 0 3.96 0 6 0 C7.29243536 4.1196377 8.26252625 7.66831683 8 12 C8.66 12 9.32 12 10 12 C10.33 10.35 10.66 8.7 11 7 C10.34 7 9.68 7 9 7 C9 6.01 9 5.02 9 4 C12.465 3.505 12.465 3.505 16 3 C16.33 2.01 16.66 1.02 17 0 C17.99 0 18.98 0 20 0 C20 4.62 20 9.24 20 14 C15.05 14 10.1 14 5 14 C5 13.34 5 12.68 5 12 C3.68 12 2.36 12 1 12 C1 12.66 1 13.32 1 14 C0.01 14 -0.98 14 -2 14 C-1.85923685 12.0412957 -1.7122324 10.08303907 -1.5625 8.125 C-1.48128906 7.03445312 -1.40007812 5.94390625 -1.31640625 4.8203125 C-1 2 -1 2 0 0 Z " fill="#EAE8F1" transform="translate(106,8)"/>
<path d="M0 0 C1.2065625 0.0309375 1.2065625 0.0309375 2.4375 0.0625 C2.4375 0.7225 2.4375 1.3825 2.4375 2.0625 C1.7775 2.0625 1.1175 2.0625 0.4375 2.0625 C0.4375 2.7225 0.4375 3.3825 0.4375 4.0625 C3.71523504 3.31099977 3.71523504 3.31099977 5.4375 0.0625 C7.9375 -0.125 7.9375 -0.125 10.4375 0.0625 C11.0975 0.0625 11.7575 0.0625 12.4375 0.0625 C14.77083333 0.0625 17.10416667 0.0625 19.4375 0.0625 C19.4375 3.0325 19.4375 6.0025 19.4375 9.0625 C17.14702777 9.42431089 14.85507055 9.77673224 12.5625 10.125 C10.64824219 10.42083984 10.64824219 10.42083984 8.6953125 10.72265625 C5.4375 11.0625 5.4375 11.0625 3.4375 10.0625 C1.43789988 10.022508 -0.56297242 10.01903201 -2.5625 10.0625 C-3.125 8.125 -3.125 8.125 -3.5625 6.0625 C-3.2325 5.7325 -2.9025 5.4025 -2.5625 5.0625 C-2.7275 4.4025 -2.8925 3.7425 -3.0625 3.0625 C-3.2275 2.4025 -3.3925 1.7425 -3.5625 1.0625 C-2.5625 0.0625 -2.5625 0.0625 0 0 Z " fill="#516CA5" transform="translate(126.5625,51.9375)"/>
<path d="M0 0 C1.32 0 2.64 0 4 0 C3.94199219 0.81984375 3.88398437 1.6396875 3.82421875 2.484375 C3.28766894 9.04262132 3.28766894 9.04262132 6.1875 14.5625 C7.115625 15.036875 8.04375 15.51125 9 16 C9.928125 16.5775 10.85625 17.155 11.8125 17.75 C12.534375 18.1625 13.25625 18.575 14 19 C13.67 20.32 13.34 21.64 13 23 C6.375 22.25 6.375 22.25 3 20 C3.061875 21.093125 3.12375 22.18625 3.1875 23.3125 C3 27 3 27 1.5 28.9375 C1.005 29.288125 0.51 29.63875 0 30 C-0.66 29.67 -1.32 29.34 -2 29 C-1.505 28.34 -1.01 27.68 -0.5 27 C1.55875722 22.88248556 1.50971845 20.58746602 1 16 C-1.5673366 12.34648253 -4.98968098 10.82287228 -9 9 C-9 7.68 -9 6.36 -9 5 C-2.25 4.875 -2.25 4.875 0 6 C0 4.02 0 2.04 0 0 Z " fill="#7AACD0" transform="translate(36,0)"/>
<path d="M0 0 C0.66 0.33 1.32 0.66 2 1 C5.78706732 1 9.26513121 0.5745952 13 0 C13 0.99 13 1.98 13 3 C11.989375 3.061875 10.97875 3.12375 9.9375 3.1875 C6.00595523 3.727591 3.69313456 5.40642586 0.6171875 7.8125 C-1 9 -1 9 -3.5 9.9375 C-6.67334645 11.28617224 -8.74766884 13.32306586 -11.29296875 15.61328125 C-13.36527953 17.29673738 -15.51272823 18.0761562 -18 19 C-19.99097846 21.98646769 -20.94124926 24.59687262 -22 28 C-22.66 28 -23.32 28 -24 28 C-24 23.05 -24 18.1 -24 13 C-22.081875 13.04125 -20.16375 13.0825 -18.1875 13.125 C-13.27779292 13.28281426 -13.27779292 13.28281426 -9 11 C-7.79549696 8.44816596 -7.79549696 8.44816596 -7 6 C-6.34 6 -5.68 6 -5 6 C-4.731875 5.38125 -4.46375 4.7625 -4.1875 4.125 C-3 2 -3 2 0 0 Z " fill="#5B5861" transform="translate(63,55)"/>
<path d="M0 0 C1.32 0 2.64 0 4 0 C4 4.62 4 9.24 4 14 C-2.0546875 14.1953125 -2.0546875 14.1953125 -4 14 C-4.66 13.34 -5.32 12.68 -6 12 C-6 10.68 -6 9.36 -6 8 C-6.66 8 -7.32 8 -8 8 C-8 9.98 -8 11.96 -8 14 C-9.32 14 -10.64 14 -12 14 C-12 10.7 -12 7.4 -12 4 C-8.33333333 4 -4.66666667 4 -1 4 C-0.67 2.68 -0.34 1.36 0 0 Z " fill="#84BBDE" transform="translate(136,67)"/>
<path d="M0 0 C5.94 0.99 5.94 0.99 12 2 C11.67 3.32 11.34 4.64 11 6 C8.03 5.505 8.03 5.505 5 5 C5.49371094 5.68707031 5.98742188 6.37414063 6.49609375 7.08203125 C7.13675781 7.98308594 7.77742188 8.88414063 8.4375 9.8125 C9.39462891 11.15248047 9.39462891 11.15248047 10.37109375 12.51953125 C12 15 12 15 13 18 C13.99 18.33 14.98 18.66 16 19 C15.04882866 20.1725131 14.08882991 21.33787015 13.125 22.5 C12.59132813 23.1496875 12.05765625 23.799375 11.5078125 24.46875 C11.01023437 24.9740625 10.51265625 25.479375 10 26 C9.34 26 8.68 26 8 26 C8 26.66 8 27.32 8 28 C6.68 27.67 5.36 27.34 4 27 C4.66 27 5.32 27 6 27 C6.144375 26.4225 6.28875 25.845 6.4375 25.25 C6.95833333 23.16666667 7.47916667 21.08333333 8 19 C7.01 18.67 6.02 18.34 5 18 C5.0825 16.9275 5.165 15.855 5.25 14.75 C5.37585669 10.96533931 5.37585669 10.96533931 3 8.6875 C2.34 8.130625 1.68 7.57375 1 7 C1 6.34 1 5.68 1 5 C1.66 5 2.32 5 3 5 C3 4.01 3 3.02 3 2 C2.01 2 1.02 2 0 2 C0 1.34 0 0.68 0 0 Z " fill="#E5E1DF" transform="translate(48,35)"/>
<path d="M0 0 C1.65 0 3.3 0 5 0 C5 0.99 5 1.98 5 3 C4.34 3 3.68 3 3 3 C3 3.66 3 4.32 3 5 C3.99 5.33 4.98 5.66 6 6 C8.44959258 9.67438887 8.07735068 11.66836193 8 16 C8.33 16.99 8.66 17.98 9 19 C7.68 19 6.36 19 5 19 C5.33 20.32 5.66 21.64 6 23 C4.68 23.99 3.36 24.98 2 26 C1.01 24.35 0.02 22.7 -1 21 C-0.34 20.34 0.32 19.68 1 19 C1.67651207 16.80295489 1.67651207 16.80295489 2.125 14.375 C2.37636719 13.14910156 2.37636719 13.14910156 2.6328125 11.8984375 C2.75398438 11.27195312 2.87515625 10.64546875 3 10 C2.34 10 1.68 10 1 10 C-0.80411967 7.24075815 -1.0127245 6.11027897 -0.625 2.75 C-0.41875 1.8425 -0.2125 0.935 0 0 Z " fill="#F9F8F4" transform="translate(46,37)"/>
<path d="M0 0 C1.33333333 0.33333333 2.66666667 0.66666667 4 1 C4.33 0.67 4.66 0.34 5 0 C13.19402985 -0.26865672 13.19402985 -0.26865672 17 1 C16.67 3.31 16.34 5.62 16 8 C13.35409986 8.02684679 10.70846904 8.04676357 8.0625 8.0625 C6.93038086 8.07506836 6.93038086 8.07506836 5.77539062 8.08789062 C3.85005687 8.09652441 1.92464419 8.05224333 0 8 C-1 7 -1 7 -1.125 4 C-1 1 -1 1 0 0 Z " fill="#A9A6CA" transform="translate(9,98)"/>
<path d="M0 0 C1 3 1 3 2 6 C7.61 6 13.22 6 19 6 C19 6.66 19 7.32 19 8 C17.35 8 15.7 8 14 8 C14 9.32 14 10.64 14 12 C5.42 12 -3.16 12 -12 12 C-12 11.67 -12 11.34 -12 11 C-7.545 10.505 -7.545 10.505 -3 10 C-3.33 8.68 -3.66 7.36 -4 6 C-2.0625 2.75 -2.0625 2.75 0 0 Z " fill="#A6B4C8" transform="translate(44,80)"/>
<path d="M0 0 C0.66 0 1.32 0 2 0 C1.979375 0.7425 1.95875 1.485 1.9375 2.25 C1.99328688 4.70462279 2.3069904 6.66109261 3 9 C3.66 9 4.32 9 5 9 C5 10.32 5 11.64 5 13 C4.34 13 3.68 13 3 13 C2.34 11.68 1.68 10.36 1 9 C0.01 9 -0.98 9 -2 9 C-2.66 9 -3.32 9 -4 9 C-4 9.66 -4 10.32 -4 11 C-3.34 11.33 -2.68 11.66 -2 12 C-3.375 13.5 -3.375 13.5 -5 15 C-5.66 15 -6.32 15 -7 15 C-7.66 12.69 -8.32 10.38 -9 8 C-9.66 8 -10.32 8 -11 8 C-12.625 6 -12.625 6 -14 4 C-11.00519083 3.1276588 -8.36424089 2.89170234 -5.25 2.9375 C-4.45078125 2.94652344 -3.6515625 2.95554688 -2.828125 2.96484375 C-2.22484375 2.97644531 -1.6215625 2.98804688 -1 3 C-0.67 2.01 -0.34 1.02 0 0 Z " fill="#E9E4DD" transform="translate(44,38)"/>
<path d="M0 0 C2.33672984 0.3086247 4.66993089 0.64456573 7 1 C9.81237541 0.64025105 9.81237541 0.64025105 12 0 C12.33 0.99 12.66 1.98 13 3 C12.01 3.495 12.01 3.495 11 4 C11.66 4.33 12.32 4.66 13 5 C12.67 6.65 12.34 8.3 12 10 C10.35 10 8.7 10 7 10 C7 9.34 7 8.68 7 8 C7.66 8 8.32 8 9 8 C9 7.34 9 6.68 9 6 C7.68 6.33 6.36 6.66 5 7 C5 7.99 5 8.98 5 10 C3.00045254 10.04254356 0.99958364 10.04080783 -1 10 C-2 9 -2 9 -2.1875 5.5625 C-2 2 -2 2 0 0 Z " fill="#7EB4D9" transform="translate(169,71)"/>
<path d="M0 0 C1.32 0 2.64 0 4 0 C4 3.3 4 6.6 4 10 C4.66 10 5.32 10 6 10 C6 6.7 6 3.4 6 0 C7.32 0 8.64 0 10 0 C10.08082094 1.95766281 10.13910778 3.91626728 10.1875 5.875 C10.22230469 6.96554688 10.25710937 8.05609375 10.29296875 9.1796875 C10.19628906 10.11039063 10.09960938 11.04109375 10 12 C7 14 7 14 3.875 13.75 C2.451875 13.37875 2.451875 13.37875 1 13 C-0.32229189 10.35541621 -0.09677194 8.32238699 -0.0625 5.375 C-0.05347656 4.37210938 -0.04445313 3.36921875 -0.03515625 2.3359375 C-0.02355469 1.56507812 -0.01195313 0.79421875 0 0 Z " fill="#F1EFF5" transform="translate(104,28)"/>
<path d="M0 0 C4.20271751 1.00605593 7.86186493 0.43559159 12.0234375 -0.515625 C11.1484375 3.359375 11.1484375 3.359375 10.0234375 4.484375 C7.48802452 4.39351049 4.98788966 4.2472805 2.4609375 4.046875 C1.75001953 3.99466797 1.03910156 3.94246094 0.30664062 3.88867188 C-1.45478249 3.75863393 -3.21572423 3.62210603 -4.9765625 3.484375 C-4.9765625 4.474375 -4.9765625 5.464375 -4.9765625 6.484375 C-7.6165625 6.814375 -10.2565625 7.144375 -12.9765625 7.484375 C-12.9765625 4.484375 -12.9765625 4.484375 -10.6015625 1.859375 C-6.4482223 -1.89840899 -5.32580682 -1.42277872 0 0 Z " fill="#99A5BC" transform="translate(42.9765625,63.515625)"/>
<path d="M0 0 C4.29 0.33 8.58 0.66 13 1 C13 3.31 13 5.62 13 8 C10.85423363 8.02685938 8.70837355 8.04633088 6.5625 8.0625 C5.36753906 8.07410156 4.17257813 8.08570312 2.94140625 8.09765625 C0 8 0 8 -1 7 C-0.71269945 4.66055264 -0.38063221 2.3260857 0 0 Z " fill="#7071A6" transform="translate(172,98)"/>
<path d="M0 0 C2.625 -0.1875 2.625 -0.1875 5 0 C3.23188872 6.28661788 -1.6680649 11.4453766 -7 15 C-9.32387947 15.39387788 -11.65793749 15.73486085 -14 16 C-12.46371994 12.1680287 -10.10154038 10.10175925 -7 7.4375 C-4.18277108 5.00927798 -2.07021245 3.10531867 0 0 Z " fill="#545D6E" transform="translate(23,71)"/>
<path d="M0 0 C0.99 0 1.98 0 3 0 C3 4.62 3 9.24 3 14 C0.69 14 -1.62 14 -4 14 C-6 12 -6 12 -6.125 8.875 C-6.08375 7.92625 -6.0425 6.9775 -6 6 C-4.125 4.9375 -4.125 4.9375 -2 4 C-1.34 4.33 -0.68 4.66 0 5 C0 3.35 0 1.7 0 0 Z " fill="#EAE9F1" transform="translate(152,8)"/>
<path d="M0 0 C0.78375 0.04125 1.5675 0.0825 2.375 0.125 C2.375 1.445 2.375 2.765 2.375 4.125 C1.385 4.125 0.395 4.125 -0.625 4.125 C0.055625 4.66125 0.73625 5.1975 1.4375 5.75 C3.375 8.125 3.375 8.125 3.125 11.375 C2.8775 12.2825 2.63 13.19 2.375 14.125 C0.065 14.455 -2.245 14.785 -4.625 15.125 C-4.625 13.805 -4.625 12.485 -4.625 11.125 C-3.635 10.795 -2.645 10.465 -1.625 10.125 C-2.945 9.135 -4.265 8.145 -5.625 7.125 C-4.53409091 0.21590909 -4.53409091 0.21590909 0 0 Z " fill="#ECEAF2" transform="translate(120.625,26.875)"/>
<path d="M0 0 C2.05078125 0.03255208 4.1015625 0.06510417 6.15234375 0.09765625 C6.15234375 3.39765625 6.15234375 6.69765625 6.15234375 10.09765625 C0 10.1953125 0 10.1953125 -1.84765625 10.09765625 C-2.84765625 9.09765625 -2.84765625 9.09765625 -2.98046875 7.28515625 C-2.97789062 6.56328125 -2.9753125 5.84140625 -2.97265625 5.09765625 C-2.97523438 4.37578125 -2.9778125 3.65390625 -2.98046875 2.91015625 C-2.79798679 0.41981421 -2.49538581 0.13189143 0 0 Z " fill="#E0DFEB" transform="translate(159.84765625,11.90234375)"/>
<path d="M0 0 C0.66 0 1.32 0 2 0 C2 3.63 2 7.26 2 11 C-1.96 11 -5.92 11 -10 11 C-10 8.69 -10 6.38 -10 4 C-9.34 4 -8.68 4 -8 4 C-7.34 4.66 -6.68 5.32 -6 6 C-6 5.34 -6 4.68 -6 4 C-4.68 4 -3.36 4 -2 4 C-1.67 5.32 -1.34 6.64 -1 8 C-1.020625 6.865625 -1.04125 5.73125 -1.0625 4.5625 C-1 1 -1 1 0 0 Z " fill="#5A5C98" transform="translate(37,95)"/>
<path d="M0 0 C1.2375 0.1546875 1.2375 0.1546875 2.5 0.3125 C4.64915785 3.53623677 4.88286803 4.57953674 4.5 8.3125 C2.5 10.3125 2.5 10.3125 -0.5625 10.5 C-3.5 10.3125 -3.5 10.3125 -4.5 9.3125 C-4.6875 5.875 -4.6875 5.875 -4.5 2.3125 C-2.5 0.3125 -2.5 0.3125 0 0 Z " fill="#8CC6E5" transform="translate(151.5,70.6875)"/>
<path d="M0 0 C2.5 0.25 2.5 0.25 4.5 2.25 C4.75 5.25 4.75 5.25 4.5 8.25 C2.5 10.25 2.5 10.25 0 10.5 C-2.5 10.25 -2.5 10.25 -4.5 8.25 C-4.75 5.25 -4.75 5.25 -4.5 2.25 C-2.5 0.25 -2.5 0.25 0 0 Z " fill="#7BACD3" transform="translate(118.5,70.75)"/>
<path d="M0 0 C2.97 0 5.94 0 9 0 C9 0.99 9 1.98 9 3 C8.34 3 7.68 3 7 3 C7 6.96 7 10.92 7 15 C5.68 15 4.36 15 3 15 C3 11.37 3 7.74 3 4 C2.01 4 1.02 4 0 4 C0 2.68 0 1.36 0 0 Z " fill="#82B9DC" transform="translate(103,47)"/>
<path d="M0 0 C4.71334503 -0.22991927 8.54569773 0.42789332 13 2 C13.33 2.66 13.66 3.32 14 4 C13.01 5.485 13.01 5.485 12 7 C11.38125 6.79375 10.7625 6.5875 10.125 6.375 C9.42375 6.25125 8.7225 6.1275 8 6 C7.34 6.66 6.68 7.32 6 8 C6 6.68 6 5.36 6 4 C5.34 4 4.68 4 4 4 C4 5.98 4 7.96 4 10 C2.68 10 1.36 10 0 10 C0 6.7 0 3.4 0 0 Z " fill="#82B8DC" transform="translate(124,71)"/>
<path d="M0 0 C7.48686787 0.1386457 12.41940395 3.04836457 18 8 C18 8.66 18 9.32 18 10 C14.97580475 9.41196203 11.98241547 8.77321882 9 8 C9 6.35 9 4.7 9 3 C4.05 4.485 4.05 4.485 -1 6 C-1.66 5.34 -2.32 4.68 -3 4 C-2.01 2.68 -1.02 1.36 0 0 Z " fill="#6A7C98" transform="translate(67,52)"/>
<path d="M0 0 C3.0625 0.1875 3.0625 0.1875 5.0625 2.1875 C5.3125 4.6875 5.3125 4.6875 5.0625 7.1875 C3.0625 9.1875 3.0625 9.1875 0 9.375 C-2.9375 9.1875 -2.9375 9.1875 -3.9375 8.1875 C-4.0625 4.6875 -4.0625 4.6875 -3.9375 1.1875 C-2.9375 0.1875 -2.9375 0.1875 0 0 Z " fill="#7EB0D5" transform="translate(116.9375,51.8125)"/>
<path d="M0 0 C1.32 0 2.64 0 4 0 C4 3.63 4 7.26 4 11 C4.99 11 5.98 11 7 11 C7 12.32 7 13.64 7 15 C4.69 15 2.38 15 0 15 C0 10.05 0 5.1 0 0 Z " fill="#E5E3EE" transform="translate(125,27)"/>
<path d="M0 0 C0.66 0.33 1.32 0.66 2 1 C2 4.3 2 7.6 2 11 C-0.64 11 -3.28 11 -6 11 C-6 8.36 -6 5.72 -6 3 C-4.35 3 -2.7 3 -1 3 C-0.67 2.01 -0.34 1.02 0 0 Z " fill="#7675A8" transform="translate(97,95)"/>
<path d="M0 0 C1.134375 0.020625 2.26875 0.04125 3.4375 0.0625 C3.4375 3.0325 3.4375 6.0025 3.4375 9.0625 C0.7975 9.0625 -1.8425 9.0625 -4.5625 9.0625 C-4.66015625 2.91015625 -4.66015625 2.91015625 -4.5625 1.0625 C-3.5625 0.0625 -3.5625 0.0625 0 0 Z " fill="#91CCE9" transform="translate(162.5625,51.9375)"/>
<path d="M0 0 C1.134375 0.020625 2.26875 0.04125 3.4375 0.0625 C3.4375 3.0325 3.4375 6.0025 3.4375 9.0625 C1.10455225 9.10491723 -1.22952567 9.10342937 -3.5625 9.0625 C-4.5625 8.0625 -4.5625 8.0625 -4.6875 4.5625 C-4.52739028 0.0794279 -4.52739028 0.0794279 0 0 Z " fill="#83BADC" transform="translate(142.5625,51.9375)"/>
<path d="M0 0 C7.97798378 -0.62572422 7.97798378 -0.62572422 12.0625 1.875 C14 4 14 4 14 6 C14.66 6 15.32 6 16 6 C17.625 8.5 17.625 8.5 19 11 C18.46503906 10.7215625 17.93007813 10.443125 17.37890625 10.15625 C13.59352718 8.31639416 9.67646742 6.79960607 5.77734375 5.21875 C3 4 3 4 0 2 C0 1.34 0 0.68 0 0 Z " fill="#9497A1" transform="translate(17,42)"/>
<path d="M0 0 C0.99 0 1.98 0 3 0 C3 4.62 3 9.24 3 14 C1.35 14 -0.3 14 -2 14 C-3.32854177 8.0819503 -2.66464729 5.22270869 0 0 Z " fill="#9392BC" transform="translate(123,8)"/>
<path d="M0 0 C0.99 0 1.98 0 3 0 C3 3.63 3 7.26 3 11 C1.00045254 11.04254356 -1.00041636 11.04080783 -3 11 C-4 10 -4 10 -4.0625 6.9375 C-4.041875 5.968125 -4.02125 4.99875 -4 4 C-2.68 3.67 -1.36 3.34 0 3 C0 2.01 0 1.02 0 0 Z " fill="#565A96" transform="translate(116,95)"/>
<path d="M0 0 C2.00720923 0.28674418 4.0085944 0.61866701 6 1 C6 2.32 6 3.64 6 5 C4.68 5 3.36 5 2 5 C2 5.66 2 6.32 2 7 C3.32 7 4.64 7 6 7 C6 7.99 6 8.98 6 10 C3.125 10.1875 3.125 10.1875 0 10 C-2 7 -2 7 -1.6875 3.875 C-1 1 -1 1 0 0 Z " fill="#E7E6F0" transform="translate(129,12)"/>
<path d="M0 0 C0 2.97 0 5.94 0 9 C-0.99 9 -1.98 9 -3 9 C-3 6.69 -3 4.38 -3 2 C-3.66 2 -4.32 2 -5 2 C-5 4.31 -5 6.62 -5 9 C-5.99 9 -6.98 9 -8 9 C-8 6.03 -8 3.06 -8 0 C-4 -1 -4 -1 0 0 Z " fill="#F9F8FA" transform="translate(145,13)"/>
<path d="M0 0 C0 2.97 0 5.94 0 9 C-0.99 9 -1.98 9 -3 9 C-3 6.69 -3 4.38 -3 2 C-3.66 2 -4.32 2 -5 2 C-5 4.31 -5 6.62 -5 9 C-5.99 9 -6.98 9 -8 9 C-8 6.03 -8 3.06 -8 0 C-4.71303767 -0.79953138 -3.28976808 -1.09658936 0 0 Z " fill="#8ECAE7" transform="translate(112,72)"/>
<path d="M0 0 C2.64 0 5.28 0 8 0 C8 2.97 8 5.94 8 9 C7.01 9 6.02 9 5 9 C5 7.02 5 5.04 5 3 C4.34 3 3.68 3 3 3 C3 4.98 3 6.96 3 9 C2.01 9 1.02 9 0 9 C0 6.03 0 3.06 0 0 Z " fill="#8FCCE9" transform="translate(148,52)"/>
<path d="M0 0 C1.2065625 0.0309375 1.2065625 0.0309375 2.4375 0.0625 C2.4375 1.0525 2.4375 2.0425 2.4375 3.0625 C1.4475 3.5575 1.4475 3.5575 0.4375 4.0625 C1.0975 4.3925 1.7575 4.7225 2.4375 5.0625 C2.480221 6.72861905 2.47813832 8.39632885 2.4375 10.0625 C1.4375 11.0625 1.4375 11.0625 -1.125 11.125 C-1.929375 11.104375 -2.73375 11.08375 -3.5625 11.0625 C-3.58938151 9.41675434 -3.60884123 7.77088587 -3.625 6.125 C-3.63660156 5.20847656 -3.64820313 4.29195313 -3.66015625 3.34765625 C-3.52086326 0.08820018 -3.27895972 0.07997463 0 0 Z " fill="#3D4486" transform="translate(3.5625,94.9375)"/>
<path d="M0 0 C1 3 1 3 2 8 C5.63 8 9.26 8 13 8 C13 8.66 13 9.32 13 10 C9.71480525 11.09506492 7.26336585 11.09960608 3.8125 11.0625 C2.18248047 11.04896484 2.18248047 11.04896484 0.51953125 11.03515625 C-0.31191406 11.02355469 -1.14335938 11.01195313 -2 11 C-1.34 10.67 -0.68 10.34 0 10 C0 9.34 0 8.68 0 8 C-1.32 8 -2.64 8 -4 8 C-2.66666667 5.33333333 -1.33333333 2.66666667 0 0 Z " fill="#C4CDDC" transform="translate(44,80)"/>
<path d="M0 0 C0.66 0.33 1.32 0.66 2 1 C5.78706732 1 9.26513121 0.5745952 13 0 C13 0.99 13 1.98 13 3 C11.989375 3.061875 10.97875 3.12375 9.9375 3.1875 C5.96379542 3.72055793 3.55268076 5.45973385 0.48046875 7.94140625 C-1 9 -1 9 -3 9 C-3.26218749 5.85375007 -3.24754367 4.38162983 -1.5 1.6875 C-1.005 1.130625 -0.51 0.57375 0 0 Z " fill="#505C70" transform="translate(63,55)"/>
<path d="M0 0 C1.98 0 3.96 0 6 0 C6 2.64 6 5.28 6 8 C4.00045254 8.04254356 1.99958364 8.04080783 0 8 C-0.33 7.67 -0.66 7.34 -1 7 C-0.71269945 4.66055264 -0.38063221 2.3260857 0 0 Z " fill="#6A6CA2" transform="translate(187,98)"/>
<path d="M0 0 C1.98 0 3.96 0 6 0 C6 2.64 6 5.28 6 8 C4.00045254 8.04254356 1.99958364 8.04080783 0 8 C-0.33 7.67 -0.66 7.34 -1 7 C-0.71269945 4.66055264 -0.38063221 2.3260857 0 0 Z " fill="#575C97" transform="translate(135,98)"/>
<path d="M0 0 C1.32 0 2.64 0 4 0 C4 0.99 4 1.98 4 3 C3.34 3 2.68 3 2 3 C2 3.66 2 4.32 2 5 C2.66 5 3.32 5 4 5 C4.042721 6.66611905 4.04063832 8.33382885 4 10 C3 11 3 11 0.4375 11.0625 C-0.366875 11.041875 -1.17125 11.02125 -2 11 C-2 10.01 -2 9.02 -2 8 C-1.34 7.67 -0.68 7.34 0 7 C-0.66 6.34 -1.32 5.68 -2 5 C-1.46428571 1.46428571 -1.46428571 1.46428571 0 0 Z " fill="#494C8C" transform="translate(54,95)"/>
<path d="M0 0 C2.0003911 0.45910615 4.00006467 0.92747748 5.9765625 1.48046875 C10.1665657 2.55628038 13.84123691 1.95057442 18 1 C17.125 4.875 17.125 4.875 16 6 C9.65953874 5.94338874 3.8848583 4.21203894 -2 2 C-1.34 1.34 -0.68 0.68 0 0 Z " fill="#BDB7B9" transform="translate(37,62)"/>
<path d="M0 0 C3.3 0 6.6 0 10 0 C9.34 0.66 8.68 1.32 8 2 C8.33 2.99 8.66 3.98 9 5 C9.66 5 10.32 5 11 5 C11.66 7.31 12.32 9.62 13 12 C13.99 12 14.98 12 16 12 C15.67 12.66 15.34 13.32 15 14 C12.00675737 12.9024777 11.15389099 12.32317108 9.75 9.375 C9.5025 8.59125 9.255 7.8075 9 7 C8.34 7 7.68 7 7 7 C5.29115995 5.37660195 3.62553283 3.70680947 2 2 C1.34 1.34 0.68 0.68 0 0 Z " fill="#C5C4C6" transform="translate(24,41)"/>
<path d="M0 0 C0.99 0 1.98 0 3 0 C3 1.32 3 2.64 3 4 C3.66 4 4.32 4 5 4 C5 2.68 5 1.36 5 0 C5.99 0 6.98 0 8 0 C7.34 2.97 6.68 5.94 6 9 C4.35 8.67 2.7 8.34 1 8 C0.67 5.36 0.34 2.72 0 0 Z " fill="#8EC8E6" transform="translate(157,72)"/>
<path d="M0 0 C4.875 1.75 4.875 1.75 6 4 C6.039992 5.99960012 6.04346799 8.00047242 6 10 C5.01 10.495 5.01 10.495 4 11 C3.34 10.67 2.68 10.34 2 10 C2 9.34 2 8.68 2 8 C0.68 7.67 -0.64 7.34 -2 7 C-1.34 6.34 -0.68 5.68 0 5 C0 3.68 0 2.36 0 1 C0 0.67 0 0.34 0 0 Z " fill="#F7F3EB" transform="translate(41,45)"/>
<path d="M0 0 C-0.33 2.31 -0.66 4.62 -1 7 C-0.34 7.33 0.32 7.66 1 8 C1.625 10.5625 1.625 10.5625 2 13 C-0.38564077 12.42415568 -2.66682784 11.77772405 -5 11 C-5.08096803 9.54257537 -5.13917774 8.08387193 -5.1875 6.625 C-5.22230469 5.81289062 -5.25710937 5.00078125 -5.29296875 4.1640625 C-5.19628906 3.44992188 -5.09960938 2.73578125 -5 2 C-2 0 -2 0 0 0 Z " fill="#8291A9" transform="translate(39,77)"/>
<path d="M0 0 C1.67542976 0.28604898 3.34385343 0.61781233 5 1 C5 1.66 5 2.32 5 3 C4.01 3.495 4.01 3.495 3 4 C3.66 4.33 4.32 4.66 5 5 C4.67 6.65 4.34 8.3 4 10 C2.35 10 0.7 10 -1 10 C-1 9.34 -1 8.68 -1 8 C-0.34 8 0.32 8 1 8 C1 7.34 1 6.68 1 6 C0.34 6 -0.32 6 -1 6 C-1.042721 4.33388095 -1.04063832 2.66617115 -1 1 C-0.67 0.67 -0.34 0.34 0 0 Z " fill="#87BFE0" transform="translate(177,71)"/>
<path d="M0 0 C2.125 0.375 2.125 0.375 4 1 C5.125 5.75 5.125 5.75 4 8 C2.33388095 8.042721 0.66617115 8.04063832 -1 8 C-2 7 -2 7 -2.1875 4.5625 C-2 2 -2 2 0 0 Z " fill="#585A96" transform="translate(154,98)"/>
<path d="M0 0 C2.125 0.375 2.125 0.375 4 1 C4.625 3.375 4.625 3.375 5 6 C4.34 6.66 3.68 7.32 3 8 C0.375 7.625 0.375 7.625 -2 7 C-2.125 4.625 -2.125 4.625 -2 2 C-1.34 1.34 -0.68 0.68 0 0 Z " fill="#494789" transform="translate(102,98)"/>
<path d="M0 0 C1.2065625 0.0309375 1.2065625 0.0309375 2.4375 0.0625 C2.4375 2.7025 2.4375 5.3425 2.4375 8.0625 C0.4575 8.0625 -1.5225 8.0625 -3.5625 8.0625 C-3.60491723 5.72955225 -3.60342937 3.39547433 -3.5625 1.0625 C-2.5625 0.0625 -2.5625 0.0625 0 0 Z " fill="#414688" transform="translate(87.5625,97.9375)"/>
<path d="M0 0 C2.125 0.375 2.125 0.375 4 1 C4.625 3.375 4.625 3.375 5 6 C4.34 6.66 3.68 7.32 3 8 C0.375 7.625 0.375 7.625 -2 7 C-2.125 4.625 -2.125 4.625 -2 2 C-1.34 1.34 -0.68 0.68 0 0 Z " fill="#575995" transform="translate(42,98)"/>
<path d="M0 0 C2.31 0 4.62 0 7 0 C7 0.99 7 1.98 7 3 C6.34 3 5.68 3 5 3 C5 5.64 5 8.28 5 11 C4.01 11 3.02 11 2 11 C2 8.36 2 5.72 2 3 C1.34 3 0.68 3 0 3 C0 2.01 0 1.02 0 0 Z " fill="#545694" transform="translate(146,95)"/>
<path d="M0 0 C0.99 0 1.98 0 3 0 C3.66 1.65 4.32 3.3 5 5 C4.34 5 3.68 5 3 5 C3 7.31 3 9.62 3 12 C2.01 12 1.02 12 0 12 C-0.19477739 10.37585622 -0.38059458 8.75063577 -0.5625 7.125 C-0.66691406 6.22007813 -0.77132812 5.31515625 -0.87890625 4.3828125 C-1 2 -1 2 0 0 Z " fill="#8CCAE8" transform="translate(184,69)"/>
<path d="M0 0 C1.98 0 3.96 0 6 0 C6.33 0.99 6.66 1.98 7 3 C6.01 3.33 5.02 3.66 4 4 C2.00902154 6.98646769 1.05875074 9.59687262 0 13 C-0.66 13 -1.32 13 -2 13 C-1.34 8.71 -0.68 4.42 0 0 Z " fill="#51525C" transform="translate(41,70)"/>
<path d="M0 0 C1.65 0 3.3 0 5 0 C5 0.66 5 1.32 5 2 C4.34 2 3.68 2 3 2 C3 2.66 3 3.32 3 4 C3.66 4 4.32 4 5 4 C5 5.65 5 7.3 5 9 C3.02 9 1.04 9 -1 9 C-0.67 8.01 -0.34 7.02 0 6 C-0.33 5.34 -0.66 4.68 -1 4 C-0.5625 1.875 -0.5625 1.875 0 0 Z " fill="#8BC4E3" transform="translate(124,52)"/>
<path d="M0 0 C-0.680625 0.20625 -1.36125 0.4125 -2.0625 0.625 C-5.37284999 2.17452553 -7.59888536 4.12472993 -10.29296875 6.5546875 C-12 8 -12 8 -14.8125 9.5625 C-17.53485686 11.35147737 -18.08746529 12.93056508 -19 16 C-19.33 16 -19.66 16 -20 16 C-20 13.69 -20 11.38 -20 9 C-19.48050781 8.76925781 -18.96101563 8.53851563 -18.42578125 8.30078125 C-13.72481403 6.1023622 -10.64988442 3.7512701 -7 0 C-3.94866374 -1.25643258 -3.23179679 -1.0772656 0 0 Z " fill="#93BFDC" transform="translate(65,64)"/>
<path d="M0 0 C1.98 0 3.96 0 6 0 C6 2.31 6 4.62 6 7 C4.02 7 2.04 7 0 7 C0 4.69 0 2.38 0 0 Z " fill="#484386" transform="translate(68,99)"/>
<path d="M0 0 C1.98 0 3.96 0 6 0 C6 2.31 6 4.62 6 7 C4.33388095 7.042721 2.66617115 7.04063832 1 7 C0 6 0 6 -0.0625 2.9375 C-0.041875 1.968125 -0.02125 0.99875 0 0 Z " fill="#4C4F8E" transform="translate(60,99)"/>
<path d="M0 0 C2.38639606 2.14775645 3.87068782 3.67291626 5.0625 6.6875 C5.371875 7.450625 5.68125 8.21375 6 9 C6.99 9.33 7.98 9.66 9 10 C7.68 11.32 6.36 12.64 5 14 C4.67 13.01 4.34 12.02 4 11 C3.34 11 2.68 11 2 11 C1.855625 9.9275 1.71125 8.855 1.5625 7.75 C1.16250558 5.08337051 0.72408076 2.58600271 0 0 Z " fill="#C2C2CD" transform="translate(55,44)"/>
<path d="M0 0 C1.2065625 0.0309375 1.2065625 0.0309375 2.4375 0.0625 C2.4375 2.3725 2.4375 4.6825 2.4375 7.0625 C0.77138095 7.105221 -0.89632885 7.10313832 -2.5625 7.0625 C-3.5625 6.0625 -3.5625 6.0625 -3.6875 3.5625 C-3.51717518 0.15600356 -3.41884482 0.08338646 0 0 Z " fill="#4D518F" transform="translate(174.5625,98.9375)"/>
<path d="M0 0 C0.50423019 5.29441695 -0.81076967 7.81413519 -4 12 C-5.32 11.34 -6.64 10.68 -8 10 C-7.67 8.35 -7.34 6.7 -7 5 C-6.34 5.33 -5.68 5.66 -5 6 C-5.33 6.99 -5.66 7.98 -6 9 C-5.34 9 -4.68 9 -4 9 C-3.87625 7.700625 -3.7525 6.40125 -3.625 5.0625 C-3.4140625 2.84765625 -3.4140625 2.84765625 -3 1 C-1 0 -1 0 0 0 Z " fill="#646B7F" transform="translate(45,74)"/>
<path d="M0 0 C5.94 0.99 5.94 0.99 12 2 C11.67 3.32 11.34 4.64 11 6 C8.03 5.505 8.03 5.505 5 5 C4.67 5.66 4.34 6.32 4 7 C3.01 6.34 2.02 5.68 1 5 C1.66 5 2.32 5 3 5 C3 4.01 3 3.02 3 2 C2.01 2 1.02 2 0 2 C0 1.34 0 0.68 0 0 Z " fill="#DAD8DD" transform="translate(48,35)"/>
<path d="M0 0 C1.98 0 3.96 0 6 0 C5.67 2.31 5.34 4.62 5 7 C3.68 7 2.36 7 1 7 C0.67 4.69 0.34 2.38 0 0 Z " fill="#5A5996" transform="translate(20,99)"/>
<path d="M0 0 C1.32 0.66 2.64 1.32 4 2 C3.67 3.98 3.34 5.96 3 8 C1.35 7.67 -0.3 7.34 -2 7 C-2.125 4.625 -2.125 4.625 -2 2 C-1.34 1.34 -0.68 0.68 0 0 Z " fill="#515291" transform="translate(122,98)"/>
<path d="M0 0 C1.32 0 2.64 0 4 0 C4 0.99 4 1.98 4 3 C3.34 3 2.68 3 2 3 C2.66 4.98 3.32 6.96 4 9 C2.35 8.67 0.7 8.34 -1 8 C-1.04241723 5.66705225 -1.04092937 3.33297433 -1 1 C-0.67 0.67 -0.34 0.34 0 0 Z " fill="#90CBE8" transform="translate(132,52)"/>
<path d="M0 0 C0.99 0.33 1.98 0.66 3 1 C2.5155542 1.38067627 2.0311084 1.76135254 1.53198242 2.15356445 C-0.54398655 4.65564466 -0.42640268 6.31802123 -0.51171875 9.54296875 C-0.54716797 10.61611328 -0.58261719 11.68925781 -0.61914062 12.79492188 C-0.64169922 13.91447266 -0.66425781 15.03402344 -0.6875 16.1875 C-0.72166016 17.31865234 -0.75582031 18.44980469 -0.79101562 19.61523438 C-0.87356314 22.4100574 -0.94269182 25.20456398 -1 28 C-1.33 28 -1.66 28 -2 28 C-2.05783842 23.70838953 -2.0935412 19.41687855 -2.125 15.125 C-2.14175781 13.90167969 -2.15851562 12.67835937 -2.17578125 11.41796875 C-2.18222656 10.25136719 -2.18867187 9.08476562 -2.1953125 7.8828125 C-2.20578613 6.80402832 -2.21625977 5.72524414 -2.22705078 4.61376953 C-2 2 -2 2 0 0 Z " fill="#80B0D2" transform="translate(3,0)"/>
<path d="M0 0 C2.9375 0.375 2.9375 0.375 6 1 C6.33 1.66 6.66 2.32 7 3 C4.25 4.625 4.25 4.625 1 6 C-1.375 5.1875 -1.375 5.1875 -3 4 C-2.01 2.68 -1.02 1.36 0 0 Z " fill="#74869B" transform="translate(67,52)"/>
<path d="M0 0 C2.0625 0.4375 2.0625 0.4375 4 1 C4 1.99 4 2.98 4 4 C3.34 4 2.68 4 2 4 C2 4.66 2 5.32 2 6 C2.66 6 3.32 6 4 6 C4 6.66 4 7.32 4 8 C2.35 7.67 0.7 7.34 -1 7 C-1.04254356 5.00045254 -1.04080783 2.99958364 -1 1 C-0.67 0.67 -0.34 0.34 0 0 Z " fill="#4F4F8F" transform="translate(9,98)"/>
<path d="M0 0 C1.65 0 3.3 0 5 0 C4.773125 0.598125 4.54625 1.19625 4.3125 1.8125 C3.73526713 4.03472131 3.73526713 4.03472131 5.1875 5.625 C7.04489149 7.03405561 8.90722343 7.98610825 11 9 C9.54077307 8.88590407 8.08259402 8.75834456 6.625 8.625 C5.81289063 8.55539063 5.00078125 8.48578125 4.1640625 8.4140625 C2 8 2 8 0 6 C0.66 4.35 1.32 2.7 2 1 C1.34 0.67 0.68 0.34 0 0 Z " fill="#E0DAD9" transform="translate(39,56)"/>
<path d="M0 0 C0.66 0 1.32 0 2 0 C2 0.66 2 1.32 2 2 C2.66 2 3.32 2 4 2 C4.37125 2.825 4.7425 3.65 5.125 4.5 C6.6864317 7.18027158 6.6864317 7.18027158 8.97265625 7.33203125 C10.98473875 7.31428802 12.99456487 7.16437993 15 7 C14.401875 7.28875 13.80375 7.5775 13.1875 7.875 C10.80672208 9.04742026 10.80672208 9.04742026 8 11 C6 11.0625 6 11.0625 4 10 C2.36061154 6.72122308 1.15761401 3.47284204 0 0 Z " fill="#8798B5" transform="translate(56,44)"/>
<path d="M0 0 C0.99 0.33 1.98 0.66 3 1 C4.1875 4.0625 4.1875 4.0625 5 7 C4.34 7.66 3.68 8.32 3 9 C2.67 7.35 2.34 5.7 2 4 C1.34 4 0.68 4 0 4 C0 6.31 0 8.62 0 11 C-0.66 11 -1.32 11 -2 11 C-1.67 8.69 -1.34 6.38 -1 4 C-1.66 3.67 -2.32 3.34 -3 3 C-2.01 3 -1.02 3 0 3 C0 2.01 0 1.02 0 0 Z " fill="#B0AECD" transform="translate(27,95)"/>
<path d="M0 0 C1.98 0 3.96 0 6 0 C6.33 1.32 6.66 2.64 7 4 C9.97 4.495 9.97 4.495 13 5 C13 5.33 13 5.66 13 6 C7.90551202 5.56826373 4.15487723 5.24599784 0 2 C0 1.34 0 0.68 0 0 Z " fill="#6E7482" transform="translate(17,42)"/>
<path d="M0 0 C0.33 0.66 0.66 1.32 1 2 C3.31 2 5.62 2 8 2 C8 2.33 8 2.66 8 3 C6.02 3 4.04 3 2 3 C2.33 5.31 2.66 7.62 3 10 C1.68 9.67 0.36 9.34 -1 9 C-0.67 7.35 -0.34 5.7 0 4 C-0.66 4 -1.32 4 -2 4 C-2 3.34 -2 2.68 -2 2 C-1.34 2 -0.68 2 0 2 C0 1.34 0 0.68 0 0 Z " fill="#C4C1DA" transform="translate(58,96)"/>
<path d="M0 0 C0.99 0.33 1.98 0.66 3 1 C3 1.99 3 2.98 3 4 C4.32 3.67 5.64 3.34 7 3 C7 4.32 7 5.64 7 7 C5.00045254 7.04254356 2.99958364 7.04080783 1 7 C0 6 0 6 -0.0625 2.9375 C-0.041875 1.968125 -0.02125 0.99875 0 0 Z " fill="#8DCAE8" transform="translate(131,74)"/>
<path d="M0 0 C-0.66 1.65 -1.32 3.3 -2 5 C-2.61875 4.79375 -3.2375 4.5875 -3.875 4.375 C-4.57625 4.25125 -5.2775 4.1275 -6 4 C-6.66 4.66 -7.32 5.32 -8 6 C-8 4.68 -8 3.36 -8 2 C-8.66 1.67 -9.32 1.34 -10 1 C-6.1496895 -1.56687367 -4.41430237 -0.83288724 0 0 Z " fill="#6995C3" transform="translate(138,73)"/>
<path d="M0 0 C1.2065625 0.0309375 1.2065625 0.0309375 2.4375 0.0625 C2.1075 1.0525 1.7775 2.0425 1.4375 3.0625 C0.4475 3.3925 -0.5425 3.7225 -1.5625 4.0625 C-1.5625 4.7225 -1.5625 5.3825 -1.5625 6.0625 C-0.9025 6.3925 -0.2425 6.7225 0.4375 7.0625 C0.4375 7.7225 0.4375 8.3825 0.4375 9.0625 C-0.5525 9.0625 -1.5425 9.0625 -2.5625 9.0625 C-2.8925 9.7225 -3.2225 10.3825 -3.5625 11.0625 C-3.58938151 9.41675434 -3.60884123 7.77088587 -3.625 6.125 C-3.63660156 5.20847656 -3.64820313 4.29195313 -3.66015625 3.34765625 C-3.52086326 0.08820018 -3.27895972 0.07997463 0 0 Z " fill="#7173A7" transform="translate(3.5625,94.9375)"/>
<path d="M0 0 C0.33 0 0.66 0 1 0 C1 1.65 1 3.3 1 5 C2.65 5 4.3 5 6 5 C6.33 4.01 6.66 3.02 7 2 C7.38218767 3.65614657 7.71395102 5.32457024 8 7 C7 8 7 8 4.5625 8.1875 C2 8 2 8 0 6 C-0.125 2.875 -0.125 2.875 0 0 Z " fill="#8FCAE8" transform="translate(114,73)"/>
<path d="M0 0 C1.65 0 3.3 0 5 0 C6.43088528 2.86177057 5.59991697 4.93375773 5 8 C3.68 8 2.36 8 1 8 C1.33 5.69 1.66 3.38 2 1 C1.34 0.67 0.68 0.34 0 0 Z " fill="#6F9AC7" transform="translate(149,71)"/>
<path d="M0 0 C0.99 0 1.98 0 3 0 C4.15941038 3.47823115 3.70820884 5.45895578 3 9 C2.01 9 1.02 9 0 9 C0 6.03 0 3.06 0 0 Z " fill="#484C8C" transform="translate(79,97)"/>
<path d="M0 0 C7.38461538 -0.36923077 7.38461538 -0.36923077 10.5 1.5 C10.995 1.995 11.49 2.49 12 3 C9.36 3 6.72 3 4 3 C4 2.34 4 1.68 4 1 C3.34 1 2.68 1 2 1 C1.67 1.99 1.34 2.98 1 4 C0.67 2.68 0.34 1.36 0 0 Z " fill="#5B6E8F" transform="translate(58,89)"/>
<path d="M0 0 C1.32 0.33 2.64 0.66 4 1 C4 1.66 4 2.32 4 3 C4.99 3.33 5.98 3.66 7 4 C7 4.99 7 5.98 7 7 C3.76509224 6.44225728 2.02144994 5.62788492 0 3 C0 2.01 0 1.02 0 0 Z " fill="#6C768D" transform="translate(29,72)"/>
<path d="M0 0 C0.66 0.33 1.32 0.66 2 1 C1.67 2.32 1.34 3.64 1 5 C1.66 5.33 2.32 5.66 3 6 C-0.75 9 -0.75 9 -3 9 C-3.26218749 5.85375007 -3.24754367 4.38162983 -1.5 1.6875 C-1.005 1.130625 -0.51 0.57375 0 0 Z " fill="#474D5F" transform="translate(63,55)"/>
<path d="M0 0 C0.99 0 1.98 0 3 0 C3 2.97 3 5.94 3 9 C2.01 9 1.02 9 0 9 C0 6.03 0 3.06 0 0 Z " fill="#FEFDFD" transform="translate(123,13)"/>
<path d="M0 0 C0.99 0 1.98 0 3 0 C3 2.64 3 5.28 3 8 C1.68 8 0.36 8 -1 8 C-1 4.88742431 -0.82638376 2.89234315 0 0 Z " fill="#4A4B8C" transform="translate(161,98)"/>
<path d="M0 0 C0.66 0.33 1.32 0.66 2 1 C1.34 2.98 0.68 4.96 0 7 C-1.65 7.33 -3.3 7.66 -5 8 C-4.67 6.68 -4.34 5.36 -4 4 C-3.34 4 -2.68 4 -2 4 C-1.34 2.68 -0.68 1.36 0 0 Z " fill="#6A6973" transform="translate(60,57)"/>
<path d="M0 0 C0.66 0 1.32 0 2 0 C2.33 1.98 2.66 3.96 3 6 C3.99 6.33 4.98 6.66 6 7 C6 7.33 6 7.66 6 8 C4.33388095 8.042721 2.66617115 8.04063832 1 8 C0 7 0 7 -0.0625 3.4375 C-0.041875 2.303125 -0.02125 1.16875 0 0 Z " fill="#90CAE8" transform="translate(113,53)"/>
<path d="M0 0 C0.99 0 1.98 0 3 0 C3 0.99 3 1.98 3 3 C2.34 3 1.68 3 1 3 C1.66 4.65 2.32 6.3 3 8 C1.68 7.67 0.36 7.34 -1 7 C-1.04254356 5.00045254 -1.04080783 2.99958364 -1 1 C-0.67 0.67 -0.34 0.34 0 0 Z " fill="#4B4C8C" transform="translate(167,98)"/>
<path d="M0 0 C2.64 0.33 5.28 0.66 8 1 C8.33 2.98 8.66 4.96 9 7 C8.67 6.34 8.34 5.68 8 5 C7.01 5.33 6.02 5.66 5 6 C3.5 4.625 3.5 4.625 2 3 C2 2.34 2 1.68 2 1 C1.34 0.67 0.68 0.34 0 0 Z " fill="#77839D" transform="translate(31,72)"/>
<path d="M0 0 C1.65 0 3.3 0 5 0 C5.33 1.32 5.66 2.64 6 4 C6.66 4 7.32 4 8 4 C8 5.32 8 6.64 8 8 C7.34 8 6.68 8 6 8 C5.62875 7.13375 5.62875 7.13375 5.25 6.25 C3.83316683 3.6997003 2.12372463 1.98214299 0 0 Z " fill="#C1BDBE" transform="translate(41,43)"/>
<path d="M0 0 C0.66 0 1.32 0 2 0 C2 3.63 2 7.26 2 11 C1.34 11 0.68 11 0 11 C-0.19406478 9.35492782 -0.38007935 7.70890406 -0.5625 6.0625 C-0.66691406 5.14597656 -0.77132812 4.22945313 -0.87890625 3.28515625 C-0.91886719 2.53105469 -0.95882812 1.77695313 -1 1 C-0.67 0.67 -0.34 0.34 0 0 Z " fill="#535291" transform="translate(37,95)"/>
<path d="M0 0 C2 3 2 3 2 5 C-0.64 5.33 -3.28 5.66 -6 6 C-6.33 5.34 -6.66 4.68 -7 4 C-4.69 3.34 -2.38 2.68 0 2 C0 1.34 0 0.68 0 0 Z " fill="#8F9DB5" transform="translate(36,65)"/>
<path d="M0 0 C0.33 0 0.66 0 1 0 C1 1.65 1 3.3 1 5 C-2.32534757 6.10844919 -4.62182575 5.84454356 -8 5 C-7.34 3.68 -6.68 2.36 -6 1 C-5.01 1.33 -4.02 1.66 -3 2 C-3.33 2.66 -3.66 3.32 -4 4 C-3.01 4 -2.02 4 -1 4 C-0.67 2.68 -0.34 1.36 0 0 Z " fill="#EEE7DF" transform="translate(47,51)"/>
<path d="M0 0 C0.99 0.33 1.98 0.66 3 1 C2.67 4.3 2.34 7.6 2 11 C1.34 11 0.68 11 0 11 C0 7.37 0 3.74 0 0 Z " fill="#4A4C8D" transform="translate(75,95)"/>
<path d="M0 0 C0.33 0.99 0.66 1.98 1 3 C-1.97 5.475 -1.97 5.475 -5 8 C-5.66 7.67 -6.32 7.34 -7 7 C-7 6.01 -7 5.02 -7 4 C-5.824375 3.8453125 -5.824375 3.8453125 -4.625 3.6875 C-1.66954819 3.22404978 -1.66954819 3.22404978 0 0 Z " fill="#4E5767" transform="translate(23,76)"/>
<path d="M0 0 C2 2 2 2 2.125 5.625 C2.08375 6.73875 2.0425 7.8525 2 9 C1.01 9.33 0.02 9.66 -1 10 C-0.67 8.02 -0.34 6.04 0 4 C-0.99 3.67 -1.98 3.34 -3 3 C-2.01 2.67 -1.02 2.34 0 2 C0 1.34 0 0.68 0 0 Z " fill="#3F5292" transform="translate(182,72)"/>
<path d="M0 0 C1.32 0 2.64 0 4 0 C3.67 1.65 3.34 3.3 3 5 C1.35 5 -0.3 5 -2 5 C-2 4.34 -2 3.68 -2 3 C-1.34 3 -0.68 3 0 3 C0 2.01 0 1.02 0 0 Z " fill="#8EC7E6" transform="translate(178,76)"/>
<path d="M0 0 C1.32 0 2.64 0 4 0 C4 2.97 4 5.94 4 9 C3.34 9 2.68 9 2 9 C1.34 6.03 0.68 3.06 0 0 Z " fill="#92CDE9" transform="translate(142,52)"/>
<path d="M0 0 C0.66 1.32 1.32 2.64 2 4 C-2.43076923 6.09230769 -2.43076923 6.09230769 -5.3125 5.625 C-5.869375 5.41875 -6.42625 5.2125 -7 5 C-7 4.34 -7 3.68 -7 3 C-5.02 3 -3.04 3 -1 3 C-0.67 2.01 -0.34 1.02 0 0 Z " fill="#626978" transform="translate(60,37)"/>
<path d="M0 0 C0.99 0 1.98 0 3 0 C3 1.32 3 2.64 3 4 C4.32 3.67 5.64 3.34 7 3 C5.625 5 5.625 5 4 7 C3.34 7 2.68 7 2 7 C1.34 4.69 0.68 2.38 0 0 Z " fill="#DFD7D2" transform="translate(35,46)"/>
<path d="M0 0 C2.875 -0.125 2.875 -0.125 6 0 C6.66 0.66 7.32 1.32 8 2 C6.02 2 4.04 2 2 2 C2 4.31 2 6.62 2 9 C1.67 9 1.34 9 1 9 C0.67 6.03 0.34 3.06 0 0 Z " fill="#696C7C" transform="translate(39,68)"/>
<path d="M0 0 C0 1.98 0 3.96 0 6 C-1.32 5.67 -2.64 5.34 -4 5 C-3.34 5 -2.68 5 -2 5 C-2 4.01 -2 3.02 -2 2 C-2.66 2 -3.32 2 -4 2 C-4.33 2.66 -4.66 3.32 -5 4 C-5 3.01 -5 2.02 -5 1 C-3 0 -3 0 0 0 Z " fill="#384386" transform="translate(193,99)"/>
<path d="M0 0 C0.99 0.33 1.98 0.66 3 1 C2.67 2.65 2.34 4.3 2 6 C1.01 6 0.02 6 -1 6 C-1.33 4.35 -1.66 2.7 -2 1 C-1.34 0.67 -0.68 0.34 0 0 Z " fill="#709EC9" transform="translate(162,52)"/>
<path d="M0 0 C0.33 1.32 0.66 2.64 1 4 C2.98 4 4.96 4 7 4 C7 4.66 7 5.32 7 6 C4.69 6.33 2.38 6.66 0 7 C0 4.69 0 2.38 0 0 Z " fill="#65A3CB" transform="translate(59,0)"/>
<path d="M0 0 C0.66 0.33 1.32 0.66 2 1 C1.67 2.32 1.34 3.64 1 5 C-0.32 5.33 -1.64 5.66 -3 6 C-3 4.35 -3 2.7 -3 1 C-2.01 0.67 -1.02 0.34 0 0 Z " fill="#6F74A8" transform="translate(105,99)"/>
<path d="M0 0 C1.65 0 3.3 0 5 0 C5 0.66 5 1.32 5 2 C4.01 2 3.02 2 2 2 C2 2.99 2 3.98 2 5 C1.01 4.67 0.02 4.34 -1 4 C-0.67 2.68 -0.34 1.36 0 0 Z " fill="#93CFEB" transform="translate(124,52)"/>
<path d="M0 0 C0.99 0.33 1.98 0.66 3 1 C3.33 2.65 3.66 4.3 4 6 C4.99 6 5.98 6 7 6 C6.67 6.66 6.34 7.32 6 8 C2.83884224 6.63016497 2.0072908 6.0109362 0 3 C0 2.01 0 1.02 0 0 Z " fill="#B4B2B8" transform="translate(33,47)"/>
<path d="M0 0 C0.99 0 1.98 0 3 0 C3 1.98 3 3.96 3 6 C2.01 6 1.02 6 0 6 C0 4.02 0 2.04 0 0 Z " fill="#7C84B2" transform="translate(69,100)"/>
<path d="M0 0 C1.67542976 0.28604898 3.34385343 0.61781233 5 1 C5 2.32 5 3.64 5 5 C3.68 4.67 2.36 4.34 1 4 C1.66 4 2.32 4 3 4 C3 3.34 3 2.68 3 2 C1.68 1.67 0.36 1.34 -1 1 C-0.67 0.67 -0.34 0.34 0 0 Z " fill="#8DC3E3" transform="translate(169,71)"/>
<path d="M0 0 C1.98 0 3.96 0 6 0 C5.67 1.32 5.34 2.64 5 4 C3.35 3.67 1.7 3.34 0 3 C0 2.01 0 1.02 0 0 Z " fill="#B4BFD2" transform="translate(54,37)"/>
<path d="M0 0 C1.32 0 2.64 0 4 0 C3 3 3 3 0 5 C-0.99 4.67 -1.98 4.34 -3 4 C-2.01 3.67 -1.02 3.34 0 3 C0 2.01 0 1.02 0 0 Z " fill="#84B0D1" transform="translate(46,33)"/>
<path d="M0 0 C0.99 0 1.98 0 3 0 C3.33 1.65 3.66 3.3 4 5 C2.68 5 1.36 5 0 5 C0 3.35 0 1.7 0 0 Z " fill="#EEECF3" transform="translate(17,101)"/>
<path d="M0 0 C1.32 0.33 2.64 0.66 4 1 C3.34 2.98 2.68 4.96 2 7 C1.34 7 0.68 7 0 7 C0 4.69 0 2.38 0 0 Z " fill="#3C3E82" transform="translate(15,99)"/>
<path d="M0 0 C1.65 0 3.3 0 5 0 C4.34 1.65 3.68 3.3 3 5 C2.34 5 1.68 5 1 5 C0.67 3.35 0.34 1.7 0 0 Z " fill="#6F70A5" transform="translate(85,98)"/>
<path d="M0 0 C0.33 0.66 0.66 1.32 1 2 C0.01 3.485 0.01 3.485 -1 5 C-3.625 5.1875 -3.625 5.1875 -6 5 C-2.25 1.125 -2.25 1.125 0 0 Z " fill="#5B6984" transform="translate(22,75)"/>
<path d="M0 0 C2.31 0 4.62 0 7 0 C6.34 2.64 5.68 5.28 5 8 C4.67 8 4.34 8 4 8 C3.67 5.69 3.34 3.38 3 1 C2.01 0.67 1.02 0.34 0 0 Z " fill="#5777AE" transform="translate(162,71)"/>
<path d="M0 0 C1.0625 1.8125 1.0625 1.8125 2 4 C1.67 4.99 1.34 5.98 1 7 C-0.32 6.34 -1.64 5.68 -3 5 C-3 4.34 -3 3.68 -3 3 C-2.01 3 -1.02 3 0 3 C0 2.01 0 1.02 0 0 Z " fill="#565996" transform="translate(123,28)"/>
</svg>
